<svg id="Layer_2" data-name="Layer 2" xmlns="http://www.w3.org/2000/svg" viewBox="0 0 74.9797 57.4086"><defs><style>.cls-1{fill:#374151;}.cls-2{fill:#5eead4;}</style></defs><path class="cls-1" d="M37.5055,13.7619h0a10.19,10.19,0,0,0-13.08,6.05L10.832,56.7975a10.19,10.19,0,1,0,19.13,7.0307L43.555,26.8421A10.19,10.19,0,0,0,37.5055,13.7619ZM40.7184,25.8l-13.6,37.0043a7.3093,7.3093,0,0,1-13.7212-5.0428l13.6-37.0044A7.3093,7.3093,0,0,1,40.7184,25.8Z" transform="translate(-10.2037 -13.0974)"/><path class="cls-2" d="M63.3718,13.3323l-.0069-.0014Z" transform="translate(-10.2037 -13.0974)"/><path class="cls-2" d="M62.6232,13.214l-.07-.0086Z" transform="translate(-10.2037 -13.0974)"/><path class="cls-2" d="M84.555,56.7975,70.9617,19.8115c-.0464-.1263-.0914-.2461-.1423-.3695a10.0814,10.0814,0,0,1-.4228,6.5283c-.0183.0412-.03.0766-.047.1234L81.99,57.7619a7.3093,7.3093,0,1,1-13.7212,5.0428L62.5949,47.3612,60.95,51.6791l4.4755,12.1491a10.19,10.19,0,1,0,19.13-7.0307Z" transform="translate(-10.2037 -13.0974)"/><path class="cls-1" d="M64.4091,13.597a12.1477,12.1477,0,0,0-3.428-.5,12.8935,12.8935,0,0,0-3.1442.415c-3.54,1.107-5.7756,3.1633-6.6523,5.7649l.0054-.0223c-.0318.08-.1877.4094-.2176.4908L37.3791,56.7319a10.19,10.19,0,1,0,19.13,7.0307L60.95,51.6791l1.6557-4.3458s7.66-21.0283,7.7523-21.261C72.8393,19.8439,69.5951,15.2741,64.4091,13.597ZM53.6654,62.7391a7.3092,7.3092,0,0,1-13.7211-5.0428L51.5878,26.0246c.0063.016.01.0316.0165.0477.09.23,7.53,20.6547,7.7388,21.2273Z" transform="translate(-10.2037 -13.0974)"/></svg>