<?xml version="1.0" standalone="no"?>
<!DOCTYPE svg PUBLIC "-//W3C//DTD SVG 20010904//EN"
 "http://www.w3.org/TR/2001/REC-SVG-20010904/DTD/svg10.dtd">
<svg version="1.0" xmlns="http://www.w3.org/2000/svg"
 width="1200.000000pt" height="1200.000000pt" viewBox="0 0 1200.000000 1200.000000"
 preserveAspectRatio="xMidYMid meet">
<metadata>
Created by potrace 1.14, written by Peter Selinger 2001-2017
</metadata>
<g transform="translate(0.000000,1200.000000) scale(0.100000,-0.100000)"
fill="#000000" stroke="none">
<path d="M3768 10585 c-2 -1 -43 -5 -93 -9 -117 -9 -146 -13 -223 -32 -34 -9
-68 -17 -75 -18 -7 -1 -43 -13 -82 -26 -38 -13 -72 -25 -75 -25 -21 -4 -50
-18 -50 -24 0 -4 -7 -8 -15 -8 -18 0 -148 -64 -153 -75 -2 -5 -9 -8 -16 -8 -6
0 -21 -7 -31 -15 -11 -8 -58 -42 -105 -75 -202 -142 -385 -357 -499 -585 -49
-100 -73 -159 -140 -350 -12 -33 -26 -69 -31 -80 -5 -11 -52 -139 -105 -285
-53 -146 -99 -272 -102 -280 -3 -8 -7 -19 -9 -25 -3 -10 -60 -165 -71 -195 -4
-8 -7 -17 -8 -20 -1 -3 -5 -12 -8 -20 -9 -21 -68 -183 -71 -195 -2 -5 -6 -17
-10 -25 -10 -25 -137 -373 -149 -410 -6 -19 -14 -37 -17 -40 -3 -3 -6 -9 -7
-15 -3 -17 -72 -205 -80 -218 -4 -7 -9 -20 -10 -29 -2 -14 -64 -185 -90 -248
-3 -8 -7 -19 -9 -25 -5 -18 -131 -359 -147 -398 -9 -20 -17 -41 -18 -45 -1 -4
-5 -17 -10 -30 -5 -13 -9 -28 -9 -33 0 -5 -4 -17 -10 -27 -5 -9 -28 -69 -51
-132 -22 -63 -68 -187 -101 -275 -33 -88 -61 -168 -63 -177 -2 -9 -8 -25 -13
-35 -6 -10 -11 -22 -12 -28 -4 -15 -11 -34 -36 -99 -13 -33 -24 -63 -24 -67 0
-4 -5 -20 -12 -36 -6 -15 -12 -32 -14 -38 -1 -5 -6 -21 -12 -35 -5 -14 -10
-28 -11 -33 0 -4 -8 -21 -17 -38 -8 -17 -17 -38 -19 -47 -2 -10 -21 -64 -43
-122 -22 -58 -61 -163 -86 -235 -26 -71 -54 -146 -61 -165 -20 -48 -81 -220
-90 -249 -4 -13 -14 -40 -23 -60 -9 -20 -17 -40 -18 -46 -1 -5 -27 -77 -58
-159 -31 -82 -56 -155 -56 -163 0 -7 -4 -13 -10 -13 -5 0 -9 -3 -9 -7 1 -5 0
-10 -1 -13 -1 -3 -3 -12 -5 -20 -7 -29 -53 -151 -59 -157 -3 -4 -6 -12 -6 -19
0 -7 -5 -25 -12 -41 -6 -15 -11 -31 -10 -35 1 -5 -2 -8 -6 -8 -5 0 -9 -6 -9
-12 0 -7 -21 -69 -47 -138 -27 -69 -49 -129 -50 -135 -2 -5 -8 -22 -14 -36 -6
-15 -23 -62 -38 -105 -14 -44 -31 -87 -36 -97 -5 -10 -11 -26 -13 -35 -2 -9
-13 -46 -25 -82 -12 -36 -23 -74 -25 -85 -5 -29 -15 -77 -20 -101 -14 -65 -20
-147 -19 -294 1 -178 8 -241 39 -360 3 -14 9 -38 11 -54 3 -17 15 -53 26 -80
11 -28 20 -53 20 -56 0 -6 12 -36 30 -77 6 -16 12 -30 12 -33 1 -3 25 -50 54
-104 108 -201 274 -393 462 -532 52 -39 102 -74 110 -77 8 -4 31 -17 50 -28
65 -39 168 -90 210 -104 3 -1 12 -4 20 -7 57 -21 110 -39 126 -43 11 -2 39 -9
64 -16 140 -34 214 -43 375 -43 164 -1 243 3 260 12 5 3 19 7 31 8 47 5 92 14
115 23 13 5 26 9 29 9 33 1 214 65 238 84 6 6 12 8 12 4 0 -4 26 8 58 25 31
17 70 39 87 48 16 9 51 31 77 48 26 18 52 33 57 33 5 0 11 3 13 8 2 4 26 25
53 47 66 52 109 91 159 144 22 25 48 52 56 60 8 9 31 37 50 61 19 25 37 47 40
50 11 10 90 137 115 185 14 28 30 57 34 65 20 33 83 200 238 625 14 39 29 79
34 90 4 11 18 49 30 85 12 36 25 70 29 75 4 6 10 22 13 36 4 14 14 43 23 65
10 21 18 44 19 49 1 6 6 21 12 35 6 14 19 50 29 80 11 30 21 57 24 60 3 3 6
12 8 20 2 12 37 111 59 170 4 8 5 18 5 23 -1 4 2 7 6 7 5 0 9 6 9 13 0 9 125
357 150 417 3 8 7 17 8 20 1 3 4 12 8 20 3 8 24 67 47 130 23 63 47 129 53
145 7 17 12 32 13 35 0 3 4 12 7 20 10 23 69 184 71 195 2 6 7 19 11 30 8 21
44 116 75 200 10 28 35 95 55 150 20 55 44 120 53 145 9 25 17 47 18 50 0 3 5
16 11 30 6 14 17 45 26 70 8 25 27 77 42 115 15 39 28 75 29 80 2 6 8 23 14
38 7 16 12 35 12 43 0 8 4 14 8 14 5 0 9 6 9 13 1 12 36 113 53 152 9 20 84
226 86 235 0 3 4 14 9 25 4 11 21 56 37 100 16 44 35 94 41 110 7 17 12 32 13
35 1 6 7 21 37 100 12 30 22 60 23 65 1 6 14 42 29 80 15 39 37 99 49 135 19
53 100 271 123 330 3 8 7 20 9 25 4 16 64 178 74 200 5 11 12 31 16 44 3 13
13 40 22 60 9 20 17 44 19 54 2 10 9 30 17 45 14 30 30 83 28 95 -1 4 2 7 8 7
5 0 10 7 10 15 0 8 12 44 26 79 14 36 27 71 28 78 3 15 14 44 27 73 5 11 18
47 30 80 12 33 26 71 32 85 6 14 11 30 12 35 0 6 7 24 13 40 7 17 24 62 38
100 14 39 28 77 31 85 4 8 7 17 8 20 1 3 5 12 8 20 13 29 77 230 82 257 3 16
8 44 11 63 3 19 7 42 9 50 19 72 27 333 13 434 -13 96 -18 130 -24 156 -3 14
-7 36 -10 50 -3 14 -8 34 -11 45 -4 11 -8 23 -9 28 -1 4 -3 9 -4 12 -1 3 -3 8
-4 13 -4 17 -18 59 -26 77 -4 11 -15 38 -23 60 -17 43 -71 158 -90 190 -7 11
-29 46 -49 78 -21 32 -38 61 -38 63 0 3 -6 11 -12 18 -7 7 -31 35 -53 62 -50
63 -197 210 -255 256 -144 114 -416 255 -544 283 -6 1 -18 5 -26 8 -16 7 -156
36 -205 43 -68 9 -272 24 -277 19z m177 -469 c28 -4 57 -9 65 -10 59 -10 199
-55 228 -74 12 -8 22 -11 22 -7 0 11 129 -63 213 -123 42 -30 77 -59 77 -64 0
-4 6 -8 13 -9 6 -1 39 -32 72 -70 33 -38 68 -76 78 -86 9 -10 17 -21 17 -26 0
-4 8 -17 18 -28 25 -26 93 -158 130 -249 64 -163 87 -345 69 -548 -4 -41 -10
-78 -13 -84 -4 -6 -9 -26 -11 -45 -6 -44 -32 -117 -167 -483 -26 -69 -49 -132
-51 -140 -2 -8 -43 -118 -90 -245 -47 -126 -88 -237 -90 -247 -2 -9 -11 -30
-19 -47 -9 -16 -16 -35 -16 -41 0 -10 -30 -94 -60 -165 -4 -11 -15 -42 -25
-70 -9 -27 -20 -59 -25 -70 -5 -11 -41 -108 -80 -215 -39 -107 -73 -202 -77
-210 -3 -8 -7 -22 -9 -30 -2 -8 -7 -23 -13 -35 -6 -11 -31 -78 -57 -150 -26
-71 -51 -141 -57 -155 -5 -14 -11 -29 -13 -35 -2 -10 -130 -359 -141 -385 -3
-8 -7 -19 -9 -25 -3 -11 -191 -522 -201 -545 -3 -8 -7 -19 -9 -25 -1 -5 -8
-23 -15 -40 -6 -16 -14 -39 -16 -49 -2 -11 -7 -24 -12 -30 -4 -6 -11 -24 -15
-41 -4 -16 -14 -43 -21 -60 -7 -16 -39 -100 -69 -185 -31 -85 -60 -164 -65
-175 -16 -37 -251 -682 -251 -689 0 -4 -8 -26 -18 -49 -28 -64 -77 -201 -74
-210 1 -4 -3 -7 -8 -7 -5 0 -9 -3 -8 -7 2 -8 -30 -111 -41 -128 -3 -5 -6 -14
-7 -20 -1 -5 -19 -53 -39 -105 -20 -52 -38 -99 -39 -105 -1 -5 -15 -44 -31
-85 -15 -41 -28 -80 -28 -87 0 -7 -4 -13 -9 -13 -4 0 -8 -6 -8 -13 0 -6 -18
-58 -39 -115 -22 -56 -40 -106 -41 -110 -1 -4 -7 -18 -12 -32 -6 -14 -11 -29
-12 -35 -2 -5 -6 -19 -10 -30 -5 -11 -24 -63 -43 -115 -19 -52 -38 -104 -42
-115 -5 -11 -18 -47 -30 -80 -99 -270 -292 -493 -551 -638 -67 -37 -204 -88
-265 -98 -5 -1 -20 -5 -32 -10 -58 -22 -339 -31 -438 -15 -124 22 -290 80
-383 135 -29 17 -57 31 -62 31 -4 0 -10 4 -12 8 -2 5 -25 24 -53 42 -48 33
-162 141 -215 205 -83 100 -194 313 -214 415 -3 14 -13 57 -22 95 -18 75 -25
305 -12 385 4 25 10 61 14 80 6 38 40 153 54 185 5 11 41 108 80 215 39 107
73 202 77 210 3 8 7 17 7 20 1 5 30 86 43 120 4 8 5 18 5 23 -1 4 3 7 10 7 6
0 9 2 6 5 -3 3 10 47 29 98 19 51 35 98 36 105 0 6 5 12 10 12 6 0 8 2 5 6 -3
3 12 51 34 107 21 56 41 109 43 117 2 8 16 47 30 85 15 39 28 75 30 80 1 6 5
17 8 25 6 13 27 66 32 80 1 3 6 20 10 38 4 17 11 32 15 32 3 0 7 6 7 13 1 14
44 136 69 192 10 22 17 44 16 49 -2 4 3 14 9 22 6 8 8 14 4 14 -4 0 -3 6 2 13
5 6 17 35 27 62 15 43 22 61 31 85 1 3 6 20 10 38 4 17 11 32 16 32 5 0 9 6 9
13 0 8 30 94 67 193 36 98 66 185 66 192 0 6 5 12 10 12 6 0 7 3 4 7 -4 3 -2
12 4 20 6 7 8 13 5 13 -4 0 -1 12 7 28 14 25 51 120 52 132 0 7 35 102 46 125
5 11 24 63 43 115 44 126 86 240 96 265 5 11 13 34 18 50 18 51 142 389 151
410 5 11 24 61 42 110 53 149 94 261 158 434 34 90 61 170 61 177 0 8 4 14 8
14 5 0 9 6 9 13 0 8 9 38 21 68 47 121 67 175 69 184 1 6 16 48 34 95 17 47
45 121 61 165 16 44 33 89 39 100 5 11 11 29 13 40 2 11 10 34 17 50 6 17 13
35 15 40 1 6 19 53 39 105 20 52 38 100 39 105 2 6 6 19 11 30 4 11 20 54 35
95 15 41 31 84 35 95 4 11 9 25 11 32 1 6 13 40 26 75 30 75 62 161 64 168 1
7 14 40 24 65 5 11 21 54 35 95 37 101 78 194 87 198 5 2 6 8 2 13 -3 5 0 9 6
9 6 0 8 5 5 10 -3 6 -1 10 4 10 6 0 11 6 11 13 0 16 96 146 152 205 82 87 197
174 308 233 25 13 47 26 50 29 3 3 10 6 15 7 6 2 61 20 124 42 63 21 125 38
138 36 12 -1 23 1 23 5 0 4 10 7 23 6 12 -1 33 1 46 4 33 8 224 5 286 -4z"/>
<path d="M7930 10579 c-30 -4 -77 -11 -105 -14 -27 -4 -57 -8 -65 -9 -9 -1
-21 -5 -28 -10 -6 -4 -12 -5 -12 -2 0 2 -15 0 -32 -5 -18 -5 -46 -12 -62 -15
-15 -2 -41 -11 -57 -20 -16 -8 -29 -12 -29 -9 0 3 -13 -1 -30 -10 -16 -9 -30
-12 -30 -9 0 4 -8 -1 -19 -10 -10 -9 -22 -16 -27 -15 -5 1 -27 -6 -49 -16 -22
-10 -42 -19 -45 -19 -10 -2 -223 -120 -234 -131 -6 -5 -29 -22 -51 -36 -126
-83 -309 -275 -375 -393 -11 -21 -28 -45 -36 -53 -8 -8 -12 -18 -9 -23 3 -4
-2 -13 -10 -20 -8 -7 -15 -20 -15 -29 0 -10 -7 -26 -15 -37 -8 -10 -15 -24
-15 -31 0 -6 -10 -33 -22 -60 -12 -26 -22 -50 -23 -53 -1 -3 -6 -16 -12 -30
-6 -14 -22 -59 -37 -100 -15 -41 -29 -82 -33 -90 -3 -8 -7 -19 -9 -25 -4 -13
-72 -195 -81 -215 -10 -23 -10 -23 -18 -57 -4 -18 -11 -33 -15 -33 -3 0 -7 -6
-7 -13 0 -8 -12 -44 -26 -81 -15 -37 -29 -75 -31 -84 -1 -9 -9 -30 -15 -47
-14 -32 -114 -303 -138 -370 -7 -22 -16 -47 -20 -55 -3 -8 -7 -19 -9 -25 -1
-5 -17 -46 -34 -90 -17 -44 -33 -84 -34 -90 -2 -5 -6 -17 -9 -25 -46 -122 -67
-184 -67 -196 0 -8 -4 -14 -8 -14 -5 0 -9 -6 -9 -12 0 -11 -60 -178 -140 -388
-13 -36 -26 -69 -27 -75 -2 -5 -8 -23 -14 -38 -7 -16 -12 -33 -12 -38 0 -5 -4
-17 -10 -27 -5 -9 -28 -69 -51 -132 -50 -140 -198 -545 -239 -653 -17 -43 -30
-85 -30 -93 0 -8 -4 -14 -8 -14 -5 0 -9 -6 -9 -12 0 -13 -75 -223 -94 -263 -5
-11 -13 -33 -18 -50 -5 -16 -35 -97 -65 -180 -31 -82 -66 -177 -77 -210 -11
-33 -24 -69 -29 -80 -7 -18 -20 -52 -25 -65 -2 -6 -11 -30 -28 -75 -7 -16 -12
-32 -13 -35 0 -3 -4 -14 -9 -25 -21 -50 -47 -121 -51 -135 -6 -29 -84 -235
-94 -252 -5 -10 -10 -25 -10 -34 0 -8 -5 -25 -12 -37 -7 -12 -13 -26 -14 -32
-1 -5 -13 -40 -27 -77 -14 -36 -23 -69 -20 -72 4 -3 1 -6 -5 -6 -7 0 -12 -6
-12 -12 0 -7 -16 -56 -36 -108 -20 -52 -36 -101 -37 -107 0 -7 -4 -13 -9 -13
-5 0 -7 -4 -4 -8 3 -5 -1 -20 -9 -35 -8 -15 -11 -27 -8 -27 3 0 1 -6 -4 -12
-6 -7 -18 -38 -28 -68 -10 -30 -22 -61 -28 -68 -5 -6 -6 -12 -2 -12 4 0 0 -11
-9 -25 -9 -14 -15 -25 -12 -25 2 0 -9 -35 -26 -77 -16 -43 -31 -86 -33 -96 -2
-9 -7 -23 -12 -30 -4 -6 -8 -15 -9 -19 -1 -5 -2 -9 -4 -10 -1 -2 -3 -10 -5
-18 -2 -8 -36 -100 -75 -205 -39 -104 -72 -198 -73 -207 -1 -10 -4 -18 -8 -18
-4 0 -10 -15 -14 -32 -4 -18 -9 -35 -9 -38 -35 -107 -63 -241 -72 -345 -6 -73
-2 -340 6 -340 1 0 3 -12 5 -26 20 -149 61 -296 121 -427 19 -41 34 -80 34
-87 0 -7 7 -16 16 -19 9 -4 14 -9 11 -13 -4 -3 1 -18 11 -32 30 -46 42 -66 49
-81 4 -8 9 -17 13 -20 3 -3 28 -36 55 -75 52 -74 224 -252 290 -300 22 -16 45
-33 50 -37 68 -55 271 -167 370 -204 17 -6 44 -17 60 -23 17 -6 39 -13 50 -16
11 -3 54 -14 95 -25 77 -21 91 -24 195 -37 92 -11 450 -6 450 7 0 2 20 6 70
15 115 20 284 78 400 137 71 36 192 108 220 130 6 5 33 25 60 46 109 81 355
350 355 389 0 6 6 16 13 20 14 9 20 20 75 129 37 73 72 149 77 167 2 4 4 9 5
12 1 3 3 8 4 13 2 10 35 100 50 137 7 17 23 59 36 95 12 36 26 74 31 85 8 19
60 161 79 215 4 14 25 70 45 125 20 55 54 147 75 205 22 58 51 137 66 175 14
39 32 88 39 110 7 22 19 54 26 70 6 17 13 36 15 43 1 8 10 30 19 49 10 20 18
41 20 47 1 6 5 18 8 26 3 8 15 42 26 75 12 33 25 69 30 80 5 11 14 34 19 50
44 124 115 311 121 318 8 8 54 -104 54 -130 0 -7 3 -13 6 -13 4 0 13 -21 20
-47 8 -27 18 -55 22 -63 4 -8 17 -42 29 -75 12 -33 26 -69 30 -80 11 -27 154
-419 156 -425 0 -3 4 -14 9 -25 24 -59 67 -178 69 -188 1 -7 6 -19 11 -27 5
-8 11 -22 12 -30 1 -8 25 -76 54 -150 28 -74 52 -139 53 -145 4 -12 14 -42 28
-75 5 -14 43 -117 84 -230 41 -113 79 -215 84 -227 6 -13 14 -33 19 -45 143
-361 422 -662 781 -844 52 -27 100 -50 105 -51 6 -1 48 -16 94 -32 179 -64
317 -86 531 -85 219 1 341 20 519 80 100 35 266 108 281 125 3 3 31 20 63 38
31 18 63 38 70 44 6 7 39 32 72 57 96 71 258 238 304 313 12 20 27 37 32 37 6
0 8 4 5 9 -4 5 -3 11 1 13 11 4 63 85 63 97 0 5 6 16 13 23 44 46 155 341 172
456 2 15 11 65 18 112 14 81 17 384 4 435 -2 11 -8 40 -12 65 -11 69 -45 201
-61 237 -8 17 -15 43 -16 57 -1 14 -5 26 -9 26 -4 0 -14 24 -23 53 -15 46 -42
122 -66 182 -21 54 -192 520 -195 530 -1 6 -7 24 -14 40 -13 32 -40 103 -45
120 -2 6 -6 17 -9 25 -41 110 -109 297 -111 305 -1 6 -7 19 -13 30 -6 11 -11
22 -11 25 -1 9 -31 99 -43 125 -5 11 -58 157 -119 325 -103 283 -141 384 -161
435 -4 11 -26 72 -49 135 -23 63 -45 124 -50 135 -13 32 -154 419 -156 430 -1
6 -18 53 -38 105 -41 106 -48 125 -46 125 0 0 -15 40 -35 90 -19 49 -35 93
-35 97 0 4 -5 19 -12 35 -6 15 -12 30 -13 33 -1 3 -6 16 -12 30 -6 14 -18 45
-26 70 -28 81 -184 504 -200 543 -9 20 -13 37 -9 37 3 0 1 5 -6 12 -7 7 -12
18 -12 26 0 8 -6 28 -14 45 -13 30 -26 66 -77 205 -12 31 -25 66 -29 77 -5 11
-41 110 -80 220 -40 110 -76 209 -80 220 -12 30 -23 59 -24 65 -1 3 -4 10 -8
16 -4 6 -9 22 -12 36 -2 14 -9 34 -15 44 -9 18 -97 252 -106 284 -2 8 -38 107
-80 220 -42 113 -78 210 -79 215 -2 6 -6 17 -9 25 -4 8 -27 71 -52 140 -93
251 -179 394 -335 550 -76 77 -227 200 -244 200 -4 0 -22 11 -39 24 -132 100
-465 225 -672 252 -22 3 -51 8 -65 11 -42 9 -372 11 -430 2z m-1294 -2092 c1
-7 14 -43 29 -82 14 -38 37 -99 49 -135 33 -90 98 -269 136 -370 17 -47 32
-89 34 -95 2 -5 8 -23 14 -38 7 -16 12 -34 12 -41 0 -6 4 -16 9 -22 5 -5 14
-27 20 -49 7 -22 17 -50 22 -62 17 -41 26 -67 58 -158 18 -49 41 -115 52 -145
11 -30 29 -80 40 -110 11 -30 25 -63 30 -72 5 -10 9 -26 9 -36 0 -10 4 -22 8
-27 4 -6 14 -28 21 -50 7 -22 16 -49 22 -60 9 -21 109 -293 113 -310 2 -5 6
-17 9 -25 4 -8 25 -67 47 -130 23 -63 45 -124 50 -135 5 -11 19 -49 31 -85 12
-36 26 -69 31 -74 4 -6 8 -16 8 -24 0 -8 21 -69 46 -136 25 -66 47 -128 49
-136 3 -8 36 -100 75 -205 39 -104 72 -194 74 -200 2 -5 6 -18 10 -27 4 -9 9
-22 10 -30 2 -7 6 -20 9 -28 4 -8 16 -40 26 -70 11 -30 31 -86 46 -125 14 -38
24 -81 21 -95 -2 -14 -21 -68 -41 -120 -20 -52 -38 -99 -39 -105 -3 -12 -14
-41 -26 -70 -14 -34 -87 -238 -95 -265 -4 -14 -11 -29 -15 -35 -3 -5 -17 -39
-29 -75 -28 -79 -140 -385 -154 -420 -5 -14 -11 -30 -12 -35 -3 -14 -69 -192
-102 -275 -14 -36 -26 -69 -28 -75 -1 -5 -5 -19 -9 -30 -5 -11 -23 -60 -41
-110 -18 -49 -36 -99 -41 -110 -4 -11 -8 -23 -8 -27 -1 -3 -4 -10 -8 -14 -5
-4 -8 -14 -8 -22 0 -8 -6 -28 -14 -45 -19 -43 -28 -69 -32 -87 -2 -8 -7 -23
-12 -35 -5 -11 -22 -54 -37 -95 -14 -41 -33 -91 -40 -110 -7 -19 -22 -60 -33
-90 -11 -30 -24 -64 -28 -75 -4 -11 -8 -22 -8 -25 -1 -3 -4 -9 -7 -15 -4 -5
-14 -35 -24 -65 -32 -96 -138 -300 -157 -300 -4 0 -8 -4 -8 -10 0 -21 -167
-196 -224 -235 -15 -11 -33 -25 -40 -30 -18 -16 -88 -59 -131 -80 -22 -11 -41
-23 -43 -27 -2 -5 -10 -8 -18 -8 -8 0 -22 -4 -32 -10 -17 -10 -90 -36 -124
-45 -10 -3 -28 -8 -40 -11 -13 -3 -32 -7 -43 -9 -11 -2 -20 -4 -20 -5 0 -3
-41 -9 -78 -12 -21 -1 -41 -6 -43 -10 -3 -4 -13 -4 -23 1 -10 6 -23 6 -31 1
-9 -6 -17 -5 -22 3 -5 8 -8 8 -8 1 0 -6 -19 -10 -47 -8 -66 3 -208 20 -208 24
0 1 -11 3 -25 6 -14 2 -46 11 -71 19 -25 9 -55 17 -66 19 -11 3 -73 32 -138
65 -148 77 -267 172 -373 297 -40 48 -138 205 -135 216 2 4 -1 8 -6 8 -5 0
-12 13 -16 30 -4 16 -11 30 -16 30 -6 0 -9 6 -8 12 1 7 -3 27 -10 43 -18 42
-48 152 -56 205 -4 25 -9 59 -11 75 -14 85 1 305 27 397 14 47 18 62 22 80 2
7 9 23 15 36 7 12 10 22 7 22 -4 0 -3 6 2 13 4 6 8 17 9 22 2 9 28 80 126 340
16 44 31 85 32 90 1 6 4 15 7 20 11 17 43 120 41 128 -1 4 2 7 7 7 5 0 11 10
14 23 7 30 65 194 82 232 8 17 20 50 29 75 19 60 111 309 142 389 14 35 27 72
29 83 3 11 9 26 16 34 6 8 9 14 6 14 -3 0 13 46 35 103 21 56 41 109 43 117 2
8 16 47 30 85 15 39 28 75 30 80 1 6 5 17 8 25 15 37 30 76 33 85 1 6 8 24 15
40 7 17 13 32 14 35 0 3 9 30 20 60 11 30 20 57 20 60 0 3 5 14 11 25 6 11 19
47 30 80 10 33 22 62 25 65 3 3 9 17 13 32 3 15 11 40 18 55 6 15 12 33 14 38
1 6 19 53 39 105 20 52 38 102 40 110 3 14 93 257 153 415 14 39 27 72 27 75
1 7 35 101 46 125 5 11 24 65 44 120 19 55 39 109 44 120 19 43 45 120 43 128
-1 4 2 7 6 7 5 0 9 6 9 13 0 7 13 46 29 87 15 41 29 77 29 80 0 5 21 61 35 95
5 11 19 49 31 85 12 36 27 71 32 78 5 6 7 12 4 12 -4 0 2 19 12 43 10 23 31
78 46 122 15 44 33 91 38 105 6 14 11 27 12 30 1 6 43 119 52 140 3 8 7 21 9
28 1 8 6 21 10 30 4 9 8 20 8 24 1 3 4 10 9 14 4 4 7 14 7 23 0 9 7 29 15 45
9 16 17 37 19 45 2 9 8 27 13 41 6 14 25 66 43 115 18 50 37 101 42 114 8 23
20 22 24 -2z m3010 -32 c3 -16 8 -33 12 -39 4 -6 7 -13 8 -16 0 -3 6 -18 12
-33 7 -16 12 -33 12 -38 0 -5 9 -28 19 -52 11 -23 36 -89 56 -147 21 -58 43
-118 50 -135 7 -16 20 -52 30 -80 9 -27 19 -57 22 -65 4 -8 7 -17 8 -20 1 -3
5 -12 8 -20 4 -8 38 -103 77 -210 39 -107 74 -202 77 -210 3 -8 7 -17 8 -20 1
-3 4 -12 7 -20 4 -8 27 -73 53 -145 26 -71 50 -139 55 -150 13 -32 35 -90 36
-95 1 -6 12 -35 24 -65 4 -11 13 -36 20 -55 7 -19 16 -44 21 -55 4 -11 15 -40
23 -65 13 -40 76 -209 93 -250 3 -8 7 -21 9 -29 2 -12 33 -94 54 -146 5 -11
27 -72 50 -135 23 -63 50 -137 60 -165 10 -27 34 -93 53 -145 54 -147 106
-290 128 -350 12 -30 25 -63 30 -72 5 -10 9 -22 9 -27 0 -5 5 -22 12 -38 6
-15 12 -31 13 -35 2 -5 3 -9 5 -10 1 -2 3 -10 5 -18 2 -8 26 -73 53 -145 27
-71 86 -231 131 -355 45 -124 86 -233 91 -242 6 -10 10 -25 10 -33 0 -8 4 -23
9 -33 19 -37 41 -93 41 -103 0 -6 6 -25 14 -42 8 -18 35 -90 61 -162 26 -71
77 -209 112 -305 96 -259 95 -258 95 -267 0 -4 3 -12 8 -18 4 -5 15 -35 25
-65 10 -30 21 -59 25 -65 5 -5 14 -30 21 -55 7 -25 14 -49 15 -55 23 -76 44
-213 45 -305 1 -59 -11 -211 -17 -221 -2 -4 -6 -23 -10 -44 -8 -55 -47 -170
-85 -250 -35 -77 -128 -225 -141 -225 -4 0 -8 -5 -8 -10 0 -24 -223 -230 -249
-230 -6 0 -11 -3 -11 -8 0 -8 -4 -11 -127 -73 -50 -25 -101 -49 -114 -54 -13
-4 -28 -9 -34 -11 -37 -12 -124 -36 -145 -39 -14 -2 -50 -7 -80 -11 -86 -12
-330 -8 -330 6 0 3 -21 6 -48 8 -26 1 -49 7 -50 12 -2 6 -7 8 -12 5 -7 -4 -80
16 -125 35 -224 95 -357 193 -500 370 -102 126 -144 215 -275 580 -29 80 -59
159 -66 175 -7 17 -20 53 -29 80 -16 49 -22 65 -43 115 -6 14 -16 43 -23 65
-6 22 -15 45 -20 51 -5 6 -10 19 -12 30 -2 10 -7 26 -10 34 -15 36 -60 159
-73 200 -8 25 -19 54 -24 65 -4 11 -18 47 -30 80 -12 33 -26 68 -31 77 -5 10
-9 22 -9 27 0 5 -5 22 -12 38 -6 15 -12 31 -13 36 -2 4 -4 9 -5 12 -1 3 -3 8
-5 13 -1 4 -5 16 -9 27 -4 11 -13 34 -18 50 -6 17 -17 44 -24 60 -7 17 -26 68
-42 115 -17 47 -69 191 -117 320 -47 129 -93 253 -100 275 -8 22 -34 92 -58
155 l-44 114 30 76 c16 41 30 80 31 85 2 6 6 19 10 30 30 80 40 106 58 159 11
34 25 66 30 72 5 7 8 16 7 20 -1 5 1 16 4 24 9 20 128 342 131 355 2 6 6 17 9
25 4 8 24 65 46 125 21 61 48 134 60 163 11 28 18 52 15 52 -4 0 -2 6 3 13 6
6 17 32 26 57 8 25 29 83 47 130 17 47 33 90 34 95 2 6 6 17 9 25 4 8 18 49
32 90 14 41 30 84 35 95 18 44 52 134 54 146 2 8 9 28 16 44 7 17 14 37 16 45
2 8 7 23 12 35 16 34 62 160 62 169 0 4 6 22 14 39 7 18 21 52 29 77 9 25 22
59 28 75 7 17 13 37 15 45 2 8 7 23 13 35 15 31 63 168 64 183 0 6 4 12 9 12
4 0 7 3 6 8 0 4 1 14 5 22 14 38 90 250 104 290 8 25 19 54 24 65 4 11 36 97
70 190 77 214 82 226 92 216 4 -4 10 -21 13 -36z"/>
</g>
</svg>
